<?xml version="1.0" encoding="UTF-8"?>
<svg width="972.16" height="66.56" version="1.1" viewBox="0 0 972.16 66.56" xmlns="http://www.w3.org/2000/svg">
 <path d="m2.0549 13.53c30.128 3.5387 60.309 6.1912 90.5 5.0258 34.328-1.3251 53.438-1.8827 102.16-13.63.0435-.32324 60.162 11.17 90.558 12.224 39.835 1.3815 87.425-1.8154 101.19-8.0799 12.864 9.1976 63.374 10.522 96.867 11.999 32.158 1.4183 62.464-7.4748 88.676-15.874 28.742 12.291 77.68 14.863 111.82 15.67 34.38.81292 59.332-.38594 94.239-10.187.0435-.32324 60.162 11.17 90.558 12.224 39.835 1.3815 88.888-.39605 101.98-9.3808" fill="none" stroke="#000" stroke-linecap="square" stroke-width="3.053"/>
 <g>
  <defs>
   <path id="tri" d="m107.24 62.173-49.083-23.866 45.211-30.574z"/>
  </defs>
  <g fill="#cce7ec">
   <use href="#tri" transform="matrix(-.79528 .37403 -.29037 -.92466 108.51 29.653)"/>
   <use href="#tri" transform="matrix(-.82274 .30897 -.2152 -.94499 300.35 29.4)"/>
   <use href="#tri" transform="matrix(-.80694 .34814 -.26035 -.93356 501.06 32.835)"/>
   <use href="#tri" transform="matrix(-.82274 .30897 -.2152 -.94499 686.31 33.662)"/>
   <use href="#tri" transform="matrix(-.82274 .30897 -.2152 -.94499 883.7 35.153)"/>
  </g>

  <g fill="#e97917">
   <use href="#tri" transform="matrix(-.75276 .45357 -.38361 -.89004 173.57 23.56)"/>
   <use href="#tri" transform="matrix(-.78383 .39745 -.31767 -.91565 365.46 27.793)"/>
   <use href="#tri" transform="matrix(-.78383 .39745 -.31767 -.91565 747.59 31.687)"/>
   <use href="#tri" transform="matrix(-.76697 .4291 -.35476 -.90192 560.27 28.617)"/>
   <use href="#tri" transform="matrix(-.78383 .39745 -.31767 -.91565 948.81 33.546)"/>
  </g>

  <g fill="#c8d22d">
   <use href="#tri" transform="matrix(-.67746 .55983 -.51093 -.82357 238.56 5.7177)"/>
   <use href="#tri" transform="matrix(-.72163 .50161 -.44074 -.86317 432.04 15.253)"/>
   <use href="#tri" transform="matrix(-.63688 .6056 -.56698 -.78604 619.72 1.807)"/>
   <use href="#tri" transform="matrix(-.72163 .50161 -.44074 -.86317 807.87 19.649)"/>
   <use href="#tri" transform="matrix(-.72163 .50161 -.44074 -.86317 1015.4 21.006)"/>
  </g>
 </g>
</svg>
